# xmcd
#
# Track frame offsets:
#	150
#	11315
#	23350
#	28342
#	33915
#	37415
#	55360
#	73310
#	84142
#	90572
#	100065
#	105570
#	110935
#	111595
#	129330
#	138627
#	159417
#	180334
#	185052
#	187662
#	205230
#	209447
#
# Disc length: 2814 seconds
#
# Revision: 1
# Processed by: cddbd v1.4PL0 Copyright (c) Steve Scherf et al.
# Submitted via: audiograbber 1.82.02
#
DISCID=300afc16
DTITLE=Darryl Rhoades VI - The Lean Years 1950 - 1994
DYEAR=1994
DGENRE=Country
TTITLE0=I'm Livin' In The House Of Jack Lord
TTITLE1=I Fell In Love While Pumpin' Ethyl
TTITLE2=My Duet With Natalie
TTITLE3=I Go Insane
TTITLE4=U Suck #1
TTITLE5=N.P.R./Trailer Trash
TTITLE6=Clueless
TTITLE7=I Don't Mind
TTITLE8=U Suck #2
TTITLE9=Nuclear Kids On The Block
TTITLE10=U Suck Rap
TTITLE11=Givin' Back To The People
TTITLE12=I'M Having Trouble
TTITLE13=Canvas Of Pain
TTITLE14=U Suck #3
TTITLE15=She Spoke French
TTITLE16=On Track
TTITLE17=U Suck #4
TTITLE18=She's Not You
TTITLE19=The Boulevard Of Broken Dreams
TTITLE20=Jet Speaks Boldly
TTITLE21=U Suck
EXTD=
EXTT0=
EXTT1=
EXTT2=
EXTT3=
EXTT4=
EXTT5=
EXTT6=
EXTT7=
EXTT8=
EXTT9=
EXTT10=
EXTT11=
EXTT12=
EXTT13=
EXTT14=
EXTT15=
EXTT16=
EXTT17=
EXTT18=
EXTT19=
EXTT20=
EXTT21=
PLAYORDER=
